<svg width="20" height="20" viewBox="0 0 20 20" fill="none" xmlns="http://www.w3.org/2000/svg">
<g clip-path="url(#clip0_372_14910)">
<g clip-path="url(#clip1_372_14910)">
<path d="M0.269455 13.7615H10.11V15.5696H16.2615V13.7654H18.7054C18.8637 15.9157 18.8761 17.8303 16.6707 19.2896C16.6437 19.3074 16.6221 19.3317 16.5623 19.3849C16.8335 19.6101 17.1009 19.8328 17.3655 20.0528C17.0082 20.3943 16.7212 20.6689 16.3922 20.9841C16.1019 20.6846 15.7879 20.3372 15.4458 20.0206C15.3453 19.9274 15.1673 19.8893 15.0215 19.8801C14.7831 19.8656 14.5414 19.9044 14.301 19.905C11.1057 19.907 7.91048 19.9063 4.71457 19.9063C4.56154 19.9063 4.398 19.9359 4.25679 19.8932C3.83054 19.7651 3.55994 19.9628 3.30642 20.2682C3.09034 20.5283 2.84405 20.7628 2.61877 21.0005C2.31468 20.6807 2.03949 20.3917 1.73474 20.0705C1.939 19.8899 2.19843 19.66 2.49004 19.4013C2.28906 19.2574 2.13866 19.1576 1.99614 19.0473C0.928209 18.2243 0.350896 17.1327 0.275366 15.7922C0.23793 15.1282 0.268798 14.4603 0.268798 13.7615H0.269455Z" fill="white"/>
<path d="M0.275543 8.78721C0.270288 8.66834 0.261093 8.56128 0.261093 8.45423C0.260437 6.71375 0.258466 4.97393 0.261093 3.23345C0.26372 1.3209 1.59108 -0.0136865 3.50101 0.000105915C4.14203 0.0047034 4.80275 -0.00843228 5.41882 0.136717C6.5117 0.394833 7.20001 1.15276 7.53235 2.22069C7.59671 2.42824 7.68012 2.52872 7.90803 2.59046C9.19401 2.93921 10.0964 4.14113 10.1128 5.48228C10.1155 5.69836 10.1128 5.91444 10.1128 6.14891H4.02578C3.73548 4.61401 4.56959 3.02985 6.31335 2.53529C6.15573 1.85027 5.48121 1.2723 4.7732 1.24734C4.23792 1.22829 3.70067 1.22632 3.16539 1.24734C2.24261 1.28346 1.50044 2.13071 1.4965 3.14676C1.48994 4.89774 1.49453 6.64938 1.49453 8.40037C1.49453 8.5199 1.49453 8.63944 1.49453 8.78656H0.274229L0.275543 8.78721Z" fill="white"/>
<path d="M10.0931 12.5328C9.96436 12.5328 9.86781 12.5328 9.77126 12.5328C6.64366 12.5328 3.5154 12.5335 0.387794 12.5321C-0.285409 12.5321 -0.769459 12.2136 -0.939566 11.6698C-1.19571 10.8514 -0.615771 10.0633 0.268259 10.0515C1.20877 10.039 2.14929 10.0482 3.0898 10.0482C5.29922 10.0482 7.50798 10.0482 9.71741 10.0482C9.83563 10.0482 9.95385 10.0482 10.0931 10.0482V12.5321V12.5328Z" fill="white"/>
<path d="M15.0237 14.371H11.3634C11.3575 14.2554 11.3477 14.1503 11.3477 14.0452C11.3464 12.777 11.3464 11.5081 11.3477 10.2398C11.3483 9.3223 11.8494 8.81789 12.763 8.81395C13.1019 8.81263 13.4408 8.80541 13.7797 8.81592C14.5409 8.84022 15.0381 9.35185 15.0401 10.115C15.044 11.4385 15.0414 12.7612 15.0401 14.0846C15.0401 14.1707 15.0309 14.2561 15.0237 14.371Z" fill="white"/>
<path d="M16.2832 12.521V10.0482C16.8782 10.0482 17.4648 10.0462 18.0506 10.0489C18.356 10.0502 18.668 10.0252 18.9668 10.0745C19.619 10.1822 20.0433 10.7162 20.0164 11.3395C19.9901 11.9509 19.5389 12.4757 18.8985 12.5092C18.0394 12.5545 17.1764 12.5204 16.2839 12.5204L16.2832 12.521Z" fill="white"/>
</g>
</g>
<defs>
<clipPath id="clip0_372_14910">
<rect width="20" height="20" fill="white"/>
</clipPath>
<clipPath id="clip1_372_14910">
<rect width="21.0171" height="21" fill="white" transform="translate(-1)"/>
</clipPath>
</defs>
</svg>
