<svg width="9" height="9" viewBox="0 0 9 9" fill="none" xmlns="http://www.w3.org/2000/svg">
<g clip-path="url(#clip0_372_7234)">
<path d="M4.2 8.40461C6.5196 8.40461 8.4 6.52421 8.4 4.20462C8.4 1.88502 6.5196 0.00463867 4.2 0.00463867C1.8804 0.00463867 0 1.88502 0 4.20462C0 6.52421 1.8804 8.40461 4.2 8.40461Z" fill="#333333"/>
<path d="M0.000781536 12.6C2.32038 12.6 4.20078 10.7195 4.20078 8.39995C4.20078 6.08036 2.32038 4.19995 0.000781536 4.19995C-2.31881 4.19995 -4.19922 6.08036 -4.19922 8.39995C-4.19922 10.7195 -2.31881 12.6 0.000781536 12.6Z" fill="#141414"/>
<path d="M8.40117 12.6C10.7208 12.6 12.6012 10.7195 12.6012 8.39995C12.6012 6.08036 10.7208 4.19995 8.40117 4.19995C6.08158 4.19995 4.20117 6.08036 4.20117 8.39995C4.20117 10.7195 6.08158 12.6 8.40117 12.6Z" fill="#141414"/>
<path d="M0.000781536 4.20005C2.32038 4.20005 4.20078 2.31964 4.20078 4.86374e-05C4.20078 -2.31955 2.32038 -4.19995 0.000781536 -4.19995C-2.31881 -4.19995 -4.19922 -2.31955 -4.19922 4.86374e-05C-4.19922 2.31964 -2.31881 4.20005 0.000781536 4.20005Z" fill="#141414"/>
<path d="M8.40117 4.20005C10.7208 4.20005 12.6012 2.31964 12.6012 4.86374e-05C12.6012 -2.31955 10.7208 -4.19995 8.40117 -4.19995C6.08158 -4.19995 4.20117 -2.31955 4.20117 4.86374e-05C4.20117 2.31964 6.08158 4.20005 8.40117 4.20005Z" fill="#141414"/>
</g>
<defs>
<clipPath id="clip0_372_7234">
<rect width="8.4" height="8.4" fill="white"/>
</clipPath>
</defs>
</svg>
